<?xml version="1.0" encoding="UTF-8" standalone="no"?>
<!-- Created with Inkscape (http://www.inkscape.org/) -->

<svg
   width="210mm"
   height="110mm"
   viewBox="0 0 210 110"
   version="1.1"
   id="svg1"
   inkscape:version="1.3 (0e150ed6c4, 2023-07-21)"
   sodipodi:docname="logo.svg"
   xmlns:inkscape="http://www.inkscape.org/namespaces/inkscape"
   xmlns:sodipodi="http://sodipodi.sourceforge.net/DTD/sodipodi-0.dtd"
   xmlns="http://www.w3.org/2000/svg"
   xmlns:svg="http://www.w3.org/2000/svg">
  <sodipodi:namedview
     id="namedview1"
     pagecolor="#ffffff"
     bordercolor="#000000"
     borderopacity="0.25"
     inkscape:showpageshadow="2"
     inkscape:pageopacity="0.0"
     inkscape:pagecheckerboard="0"
     inkscape:deskcolor="#d1d1d1"
     inkscape:document-units="mm"
     showguides="false"
     inkscape:zoom="1"
     inkscape:cx="384.5"
     inkscape:cy="175.5"
     inkscape:window-width="1920"
     inkscape:window-height="991"
     inkscape:window-x="-9"
     inkscape:window-y="-9"
     inkscape:window-maximized="1"
     inkscape:current-layer="svg1" />
  <defs
     id="defs1" />
  <path
     id="path20"
     style="display:inline;fill:#ffffff;stroke:#ffffff;stroke-width:0.710041;stroke-opacity:1;fill-opacity:1"
     d="m 151.9599,0.36022695 c 0.99579,0.88512005 1.9364,1.86813165 2.93695,2.74657265 0.89241,0.7949469 0.91365,0.8513643 1.88777,1.5603783 3.93746,2.8658805 7.90008,6.4483081 12.3399,8.2071251 2.11095,0.716373 4.21865,1.451516 6.36193,2.005984 0.18337,0.04096 0.36756,0.07554 0.55122,0.111796 -0.99833,0.394221 -1.99808,0.782628 -2.98525,1.221915 -1.71919,0.695738 -3.45749,1.310957 -5.19758,1.919022 -2.2172,0.683791 -4.45758,1.235707 -6.68647,1.855382 -2.62616,0.801801 -5.26268,1.55091 -7.88924,2.350652 -2.70972,0.768108 -5.44204,1.378047 -8.20759,1.735827 -3.39976,0.521988 -6.81838,0.693978 -10.24278,0.726633 -4.20353,0.0705 -8.40604,0.191501 -12.60126,0.55738 -4.60075,0.320052 -9.19892,0.772646 -13.81142,0.664525 -4.41209,-0.0021 -8.824678,0.02336 -13.236731,0.02943 -4.076713,-0.02285 -8.153571,-0.04744 -12.228386,-0.225123 -4.298538,-0.2586 -8.586401,-0.735791 -12.834136,-1.627147 C 64.8966,23.202336 59.68147,22.158523 54.485739,20.975808 49.699748,19.860943 44.898535,18.81606 40.182525,17.285238 35.716477,15.900091 31.261449,14.456201 26.829389,12.908408 22.185658,11.25441 17.59393,9.3735268 13.087303,7.1994429 8.8794116,5.116839 4.6734358,3.0153813 0.58638979,0.57753963 L 8.0433351,7.8934624 C 11.92906,10.004985 15.888825,11.9135 19.835716,13.841538 c 4.594853,2.175277 9.251783,4.149112 13.982389,5.806774 4.411869,1.536914 8.863381,2.887411 13.303588,4.288324 4.737715,1.396705 9.516953,2.596535 14.316836,3.606736 5.210999,1.069676 10.41637,2.175895 15.63357,3.198375 4.322929,0.894207 8.67871,1.433444 13.053384,1.683041 4.046917,0.194878 8.099903,0.112485 12.149127,0.08851 4.42187,-0.0051 8.84328,0.0072 13.26519,-0.0031 4.59618,0.100754 9.17876,-0.436591 13.76188,-0.787177 4.23309,-0.26278 8.47252,-0.356935 12.71028,-0.394366 2.30329,-0.0072 4.61883,0.01955 6.91564,-0.242186 0.1098,-0.01266 3.31628,-0.480381 3.47205,-0.503053 2.83058,-0.306765 5.62486,-0.92468 8.39092,-1.72185 2.61539,-0.857858 5.24261,-1.651633 7.88926,-2.346002 2.25254,-0.617451 4.52273,-1.119526 6.75954,-1.82432 1.77567,-0.589851 3.53991,-1.218078 5.28181,-1.950093 0.35043,-0.173646 0.71322,-0.301548 1.06899,-0.454909 -0.22654,0.381161 -0.44931,0.765719 -0.69243,1.130301 -1.08629,1.628858 -2.36117,3.048594 -3.57489,4.522771 -0.82975,0.909738 -1.61092,1.893027 -2.49099,2.72949 -0.0988,0.09386 -1.01314,0.886921 -1.11608,0.9766 -1.24399,1.054084 -2.58974,1.901918 -4.02701,2.445374 -0.91212,0.309843 -1.79101,0.75795 -2.70407,1.060434 l 7.78894,6.632771 c 0.85218,-0.414413 1.70656,-0.819296 2.56656,-1.20793 1.45882,-0.730924 2.83423,-1.683926 4.16823,-2.721739 1.28373,-1.179515 2.45978,-2.505621 3.49806,-4.024381 0.84058,-1.125125 1.69019,-2.23928 2.53065,-3.364518 0.22485,-0.301074 1.69725,-2.27423 1.91626,-2.60839 0.24119,-0.367958 0.44511,-0.772316 0.66767,-1.158254 0.21477,-0.410831 0.44949,-0.806483 0.64413,-1.232783 0.38723,-0.848091 0.60644,-1.606823 0.88318,-2.515222 0.4212,-1.382729 0.78795,-2.783837 1.05907,-4.226225 0.41176,-2.170791 0.80266,-4.35425 1.08261,-6.558251 l -6.75211,-0.673828 c -1.71518,-0.543159 -2.93314,-0.124268 -5.94325,-0.881889 -2.71872,-0.14623 -4.59624,-0.04888 -6.36193,-1.0262765 -1.58616,-0.099415 -2.85323,-0.8278279 -4.43207,-1.0759634 -0.865,-0.1359593 -1.47048,-0.3259895 -2.32009,-0.5589451 -2.10641,-0.6447855 -3.80193,-1.5977463 -5.89122,-2.322712 -0.40318,-0.3777243 -1.20115,-0.5102464 -1.59298,-0.9067319 z M 23.218591,36.325013 c -1.444174,0.283445 -2.88636,0.593483 -4.303226,1.052664 -1.824086,0.546688 -3.477453,1.646785 -5.13687,2.703112 -1.558399,1.008081 -2.706741,2.615079 -3.703698,4.383025 -0.9159479,1.661357 -1.5162878,3.294361 -1.8456566,5.266477 -0.2633908,2.002774 -0.3100224,4.033427 -0.1003433,6.04432 0.217026,1.990126 0.9465147,3.771429 1.7304589,5.491623 0.726371,1.526704 1.83438,2.649267 2.834135,3.876874 1.090687,1.318376 2.120842,2.709277 3.190879,4.053875 0.98915,1.309691 2.021256,2.560361 2.925797,3.965391 0.942586,1.448254 1.494998,3.141144 1.968286,4.889185 0.570848,1.811777 0.830691,3.705225 0.989719,5.631318 0.139289,1.719987 0.04873,3.417199 -0.365414,5.064653 -0.517212,1.726265 -1.300157,3.150004 -2.256904,4.528977 -1.027747,1.317739 -2.150174,2.505436 -3.366772,3.538422 -1.319104,0.974953 -2.772314,1.680201 -4.231384,2.252823 -1.5519093,0.708706 -3.1562068,1.110908 -4.7937516,1.330608 -1.1316696,0.13009 -2.2687087,0.13339 -3.4039367,0.11807 -0.5291638,-0.009 -0.2765389,0.033 -0.7605581,-0.11026 l 7.5882484,7.06284 c 0.537335,-0.006 0.2688,-0.003 0.80515,-0.012 1.127015,-0.0391 2.254429,-0.11025 3.370492,-0.32295 1.664169,-0.32256 3.29712,-0.82104 4.887892,-1.52 1.519871,-0.6691 3.04266,-1.39607 4.392413,-2.51682 1.25908,-1.11629 2.427215,-2.37042 3.477019,-3.789916 1.032438,-1.460902 1.886039,-3.086826 2.469957,-4.904715 0.510181,-1.764292 0.653292,-3.646924 0.52149,-5.516435 C 29.97494,86.903686 29.791983,84.892319 29.205197,83.029683 28.762374,81.173839 28.277021,79.357319 27.36078,77.767857 26.504685,76.301326 25.554718,74.952518 24.495678,73.70932 23.998596,73.006151 23.451735,72.391303 22.929968,71.717321 22.234002,70.818307 22.535707,71.226196 21.863451,70.25785 21.693,70.036111 21.503409,69.838661 21.323382,69.629036 21.169108,69.428931 20.54172,68.611775 20.375779,68.416454 c -0.6728,-0.7919 -1.437698,-1.47358 -1.986869,-2.418977 -0.820187,-1.580302 -1.606042,-3.217691 -1.892724,-5.095692 -0.313321,-1.868214 -0.270042,-3.77465 -0.04584,-5.659289 0.270295,-1.756553 0.807538,-3.381016 1.622691,-4.85968 0.935432,-1.62613 2.015335,-3.023565 3.475781,-3.912565 1.584842,-1.050163 3.199941,-2.030149 4.969644,-2.488866 1.439362,-0.359931 2.903223,-0.720407 4.377548,-0.662971 z m 166.126379,2.398786 c -0.52026,0.02583 -0.98401,0.314535 -1.36627,0.957962 -0.0562,0.09509 -0.32369,1.352874 -0.33075,1.384942 -0.87381,3.372576 -1.97245,6.649134 -3.00879,9.946069 l -5.95562,16.502744 c -0.67809,1.799458 -1.36098,3.597187 -2.04385,5.393793 -0.89318,2.586151 -1.8214,5.153221 -2.70532,7.744446 -1.486,4.355937 -2.76255,8.863673 -4.7442,12.922416 l 8.20882,5.727583 c 0.89132,-4.664565 2.42217,-9.076715 3.88828,-13.489122 1.70281,-5.124817 0.89417,-2.77862 2.67558,-7.738229 0.51206,-1.448676 1.03496,-2.891136 1.55703,-4.334913 1.48031,0.914986 3.68179,0.342601 5.37345,0.357111 1.49606,-0.05825 2.98104,0.06823 4.47046,0.209718 0.0537,0.450885 0.11168,0.901174 0.16349,1.352317 0.58629,6.162528 1.33605,12.304606 2.30026,18.392283 0.43461,2.937591 0.94845,5.758652 2.06861,8.408981 0.42745,1.0091 1.02323,1.87129 1.60659,2.73881 l 8.55321,4.52431 c -0.59323,-0.81863 -1.22925,-1.59808 -1.7119,-2.53073 -0.17498,-0.37292 -0.75101,-1.57529 -0.89804,-1.97495 -0.74109,-2.0144 -1.13994,-4.20915 -1.61899,-6.331563 -0.54058,-2.758778 -1.0184,-5.519749 -1.41705,-8.317357 -0.7252,-5.089527 -0.17065,-1.46794 -0.84852,-6.708854 -0.15438,-1.193388 -0.33202,-2.38161 -0.49795,-3.572558 -1.31765,-9.60774 -3.07498,-19.110508 -4.80738,-28.61163 -0.2469,-1.237147 -0.86614,-2.322732 -1.1074,-3.56167 -0.15414,-0.791376 -0.79787,-1.558279 -1.11853,-2.412792 -1.91239,-2.320437 -4.43086,-7.090974 -6.68525,-6.978994 z M 51.688763,39.697291 c -0.07638,-0.0031 -0.161679,0.04755 -0.231648,0.08851 -0.121575,0.07111 -0.214702,0.201896 -0.322059,0.302762 -0.09644,0.150707 -0.210819,0.285966 -0.289855,0.451812 -0.26386,0.553645 -0.149742,1.953859 -0.213047,2.588209 -0.07124,1.745808 -0.223163,3.480254 -0.501671,5.195034 -0.202308,2.054993 -0.368662,4.125679 -0.791527,6.132837 -0.466136,2.212862 -0.807339,4.459798 -1.300629,6.66382 -0.514842,2.704944 -0.991085,5.422268 -1.470329,8.137267 -0.428735,2.606137 -0.953045,5.172096 -1.498823,7.742881 -0.611065,2.778919 -1.036449,5.621716 -1.808497,8.342199 -0.641579,2.619434 -1.231966,5.258461 -1.786197,7.909025 -0.397614,1.989159 -0.749815,3.992313 -1.134646,5.983787 l 8.392161,5.549056 c 0.14955,-2.04589 0.488119,-4.05959 0.839836,-6.062976 0.532782,-2.63447 1.138142,-5.246636 1.749036,-7.854687 0.667654,-2.758727 1.197104,-5.565608 1.853091,-8.328213 0.552675,-2.60061 1.063513,-5.21355 1.488908,-7.851589 0.06088,-0.353272 0.12443,-0.7057 0.185793,-1.058869 2.937141,1.999099 5.620418,4.698969 8.689452,6.390563 0.99152,0.546482 2.023366,0.981478 3.031082,1.478088 0.386342,0.202504 0.781526,0.374596 1.179234,0.5372 0.08166,1.03064 0.1672,2.059129 0.341887,3.077296 0.342683,1.399041 0.538509,2.833391 0.650311,4.286748 0.114855,1.594969 0.09707,3.199424 0.102772,4.799147 0.03811,1.662202 0.004,3.325123 -0.02603,4.987005 l 8.376061,5.350317 c -0.02616,-1.67174 -0.05657,-3.34313 -0.01434,-5.014951 0.0053,-1.621983 -0.0066,-3.244388 -0.03837,-4.865908 -0.08432,-1.515816 -0.245953,-3.021043 -0.590865,-4.482408 -0.403206,-1.567418 -0.401692,-3.190161 -0.605723,-4.806875 -0.341846,-2.391767 -0.846417,-4.723463 -1.500061,-7.013191 -0.531777,-2.292487 -1.037674,-4.59405 -1.675942,-6.845473 -0.393061,-1.82992 -0.921637,-3.617378 -1.585532,-5.320807 -0.252604,-0.700245 -0.468002,-1.419921 -0.72216,-2.119302 -0.576032,-1.585016 -1.32723,-3.063742 -1.891486,-4.656312 -0.909633,-2.164369 -1.893637,-4.262081 -3.096732,-6.196489 -1.263429,-2.072231 -2.563029,-4.118022 -4.101329,-5.885957 -3.406412,-3.710329 -2.113858,-2.307398 -9.608556,-7.604708 -0.02229,-0.01585 -0.04764,-0.02377 -0.07309,-0.02491 z m -23.070699,0.06988 c -0.0211,0.0031 -0.03686,0.02614 -0.03716,0.0528 -1.15e-4,0.03005 0.01942,0.05454 0.04336,0.05434 0.02398,1.44e-4 0.04345,-0.02439 0.04336,-0.05434 -2.61e-4,-0.0031 -6.74e-4,-0.0051 -0.0013,-0.0072 -2.62e-4,-0.0031 -6.76e-4,-0.0051 -0.0013,-0.0082 -3.58e-4,-0.0021 -7.71e-4,-0.0031 -0.0013,-0.0051 -3.58e-4,-0.0021 -7.69e-4,-0.0031 -0.0013,-0.0041 -7.6e-4,-0.0021 -0.0018,-0.0031 -0.0023,-0.0051 -7.62e-4,-0.0021 -0.0018,-0.0031 -0.0023,-0.0041 l -0.0013,-0.0021 c -0.0012,-0.0021 -0.0022,-0.0021 -0.0038,-0.0031 -0.0015,-0.0021 -0.003,-0.0041 -0.005,-0.0062 -0.0012,-5.45e-4 -0.0022,-0.0021 -0.0038,-0.0021 -0.0012,-0.0021 -0.0023,-0.0021 -0.0036,-0.0031 -0.002,-5.45e-4 -0.0041,-0.0021 -0.0063,-0.0021 -0.002,-5.46e-4 -0.0041,-0.0021 -0.0063,-0.0021 -0.0013,-6.2e-5 -0.0022,-6.2e-5 -0.0038,0 -0.0021,-1.86e-4 -0.0041,-1.86e-4 -0.0063,0 z M 91.43479,42.44544 c -0.117647,0.06093 -0.227004,0.277312 -0.343134,0.369512 -0.112866,0.193674 -0.257464,0.365498 -0.339391,0.582234 -0.446717,1.181893 -0.01195,3.598658 -0.139991,4.910931 -0.0026,3.670646 -0.05777,7.341539 -0.317095,11.000288 -0.455322,6.121505 -1.062493,12.225855 -1.610296,18.334836 -0.382757,4.72441 -0.667215,9.46223 -1.096259,14.178479 l 8.407027,5.368939 c -0.243735,-4.844419 0.0875,-9.698572 0.380286,-14.52781 0.392847,-6.09978 1.171478,-12.144584 1.755213,-18.216846 0.2785,-2.842498 0.46235,-5.697161 0.580972,-8.556435 1.754758,3.764863 3.281668,7.695222 4.674848,11.691168 1.30256,3.683838 1.98483,7.614403 2.6669,11.529726 0.51742,3.029842 0.94332,6.078982 1.52731,9.090567 0.30141,1.765444 0.82117,3.451275 1.46165,5.063089 1.9524,4.006618 0.73417,1.728962 8.72909,6.691762 0.20639,0.12829 0.40523,-0.290238 0.56856,-0.49373 0.48933,-1.15072 0.88859,-2.394051 1.31673,-3.591205 0.93645,-3.684869 1.80665,-7.394704 2.72019,-11.088783 0.76751,-3.140423 1.06826,-6.399301 1.33531,-9.6526 0.18577,-3.362933 0.55046,-6.699716 0.85594,-10.046975 0.26148,-2.903394 0.38437,-5.823427 0.49175,-8.741238 0.0144,-0.825749 0.13281,-1.626305 0.2911,-2.423639 l -8.2398,-5.580097 c -0.175,0.891377 -0.32254,1.78155 -0.30102,2.707774 0.005,2.923214 -0.047,5.846469 -0.28862,8.756746 -0.29205,3.344152 -0.73953,6.667988 -0.90421,10.028338 -0.25186,3.194412 -0.51003,6.404529 -1.21765,9.502017 -0.18384,0.890739 -0.37777,1.778247 -0.57847,2.662729 -0.55325,-3.35502 -1.2036,-6.681809 -2.38076,-9.80165 -2.22711,-5.951235 -4.70029,-11.771574 -7.46934,-17.355129 -0.89979,-1.719175 -1.35485,-2.643741 -2.29284,-4.254176 -0.25878,-0.444372 -0.53492,-0.872246 -0.80515,-1.30575 -0.19153,-0.3073 -0.3124,-0.719162 -0.58095,-0.916045 -2.857143,-2.094975 -5.753441,-4.117292 -8.736512,-5.915473 -0.04129,-0.0249 -0.08219,-0.02192 -0.121362,-0.0021 z m 58.94702,4.560047 c -2.25675,0.03756 -4.53899,-0.03962 -6.74963,0.630367 -2.66945,0.807369 -5.28199,1.888386 -7.81123,3.232542 -2.12914,1.108021 -4.18649,2.382052 -6.20709,3.76973 l 7.90536,6.519453 c 1.74877,-1.706495 3.78563,-2.913128 5.81072,-4.010425 0.51655,-0.272207 1.03931,-0.5259 1.56445,-0.768519 -0.14885,4.226627 -0.56841,8.445062 -1.0058,12.632067 -0.73364,5.826739 -1.80355,11.575985 -2.78582,17.342717 -0.44419,3.370857 -0.92285,6.735952 -1.33284,10.113725 -0.20162,1.568982 -0.30283,3.153227 -0.3456,4.740136 -0.005,0.18447 -0.007,0.36811 -0.0119,0.55273 l 8.39959,5.3736 c -9.8e-4,-0.18416 -0.003,-0.3685 -0.005,-0.55273 -0.005,-1.5808 0.0192,-3.16298 0.13251,-4.73857 0.25672,-3.420021 0.68688,-6.810082 1.06404,-10.211557 0.75756,-5.90729 1.73241,-11.772334 2.32008,-17.713773 0.43862,-3.909209 0.81685,-7.827877 1.24861,-11.737787 0.11287,-1.022488 0.25784,-2.039627 0.37282,-3.061755 0.0736,-0.653513 0.1105,-1.313828 0.19322,-1.965633 0.0554,-0.437115 0.17882,-1.860371 0.25269,-2.293196 l 4.37753,-1.142702 c 3.02668,5.45e-4 6.0289,0.467948 9.03752,0.810455 2.39061,0.270406 4.78889,0.441273 7.18446,0.625695 l -7.25752,-6.682447 c -2.38008,-0.127695 -4.75975,-0.298347 -7.12746,-0.641245 -3.06323,-0.43055 -6.13631,-0.811557 -9.2221,-0.822878 z m -91.726622,4.556908 c 0.521089,1.003717 1.008675,2.034286 1.464129,3.089718 0.945777,2.182491 1.876495,4.370356 2.622331,6.673154 0.622041,1.701895 1.134803,3.455195 1.636306,5.21678 0.631563,2.272398 1.179553,4.580774 1.750274,6.878076 0.411715,1.618669 0.815266,3.237976 1.13341,4.886088 -1.218192,-0.81305 -2.458689,-1.565853 -3.739621,-2.186093 -1.412278,-0.557917 -2.829589,-1.095775 -4.212801,-1.762204 -0.791843,-0.377394 -1.457802,-0.941362 -2.232127,-1.369421 -0.637665,-0.434203 -1.273414,-0.738859 -1.92741,-1.065085 0.315389,-1.776117 0.639523,-3.550751 0.994671,-5.31459 0.537682,-2.178324 0.896736,-4.413663 1.33779,-6.623468 0.463192,-2.032567 0.640065,-4.136618 0.889385,-6.219778 0.111006,-0.731151 0.199691,-1.466645 0.283663,-2.203177 z m 133.818752,4.102019 c 0.96056,4.895484 1.7497,9.844184 2.40801,14.81816 -0.64875,-0.501848 -0.83189,-0.608858 -2.50714,-1.606957 -1.3664,-0.73427 -2.78937,-1.326126 -4.2809,-1.476534 -0.0731,-0.0062 -0.14623,-0.0093 -0.21934,-0.01503 0.18434,-0.485774 0.36106,-0.976559 0.5475,-1.461005 1.23359,-3.205517 2.56311,-6.347524 3.78669,-9.559453 0.0893,-0.232246 0.17596,-0.466199 0.26509,-0.698691 z" />
</svg>
